<svg xmlns="http://www.w3.org/2000/svg" viewBox="0 0 70 46" width="70" height="46">
  <!-- 74HC93 — 14-pin DIP, generated by generate-dip.js -->
  <rect x="10" y="2" width="50" height="42" rx="2" fill="#303030" stroke="#1a1a1a" stroke-width="1"/>
  <path d="M32 2 A3 3 0 0 1 38 2" fill="#303030" stroke="#555" stroke-width="0.8"/>
  <circle cx="15" cy="7" r="1.5" fill="#b0b0b0"/>
  <text x="35" y="22" text-anchor="middle" font-family="monospace" font-size="5.5" fill="#c0c0c0">74HC93</text>
  <text x="35" y="30" text-anchor="middle" font-family="monospace" font-size="3.5" fill="#888">4-BIT CTR</text>
  <line x1="0" y1="8" x2="10" y2="8" stroke="#aaa" stroke-width="1.5" stroke-linecap="round"/>
  <circle cx="0" cy="8" r="1.5" fill="#c0c0c0"/>
  <text x="13" y="9" font-family="monospace" font-size="3" fill="#888">cka</text>
  <line x1="0" y1="13" x2="10" y2="13" stroke="#aaa" stroke-width="1.5" stroke-linecap="round"/>
  <circle cx="0" cy="13" r="1.5" fill="#c0c0c0"/>
  <text x="13" y="14" font-family="monospace" font-size="3" fill="#888">nc1</text>
  <line x1="0" y1="18" x2="10" y2="18" stroke="#aaa" stroke-width="1.5" stroke-linecap="round"/>
  <circle cx="0" cy="18" r="1.5" fill="#c0c0c0"/>
  <text x="13" y="19" font-family="monospace" font-size="3" fill="#888">nc2</text>
  <line x1="0" y1="23" x2="10" y2="23" stroke="#aaa" stroke-width="1.5" stroke-linecap="round"/>
  <circle cx="0" cy="23" r="1.5" fill="#c0c0c0"/>
  <text x="13" y="24" font-family="monospace" font-size="3" fill="#888">nc3</text>
  <line x1="0" y1="28" x2="10" y2="28" stroke="#aaa" stroke-width="1.5" stroke-linecap="round"/>
  <circle cx="0" cy="28" r="1.5" fill="#c0c0c0"/>
  <text x="13" y="29" font-family="monospace" font-size="3" fill="#888">vcc</text>
  <line x1="0" y1="33" x2="10" y2="33" stroke="#aaa" stroke-width="1.5" stroke-linecap="round"/>
  <circle cx="0" cy="33" r="1.5" fill="#c0c0c0"/>
  <text x="13" y="34" font-family="monospace" font-size="3" fill="#888">r0a</text>
  <line x1="0" y1="38" x2="10" y2="38" stroke="#aaa" stroke-width="1.5" stroke-linecap="round"/>
  <circle cx="0" cy="38" r="1.5" fill="#c0c0c0"/>
  <text x="13" y="39" font-family="monospace" font-size="3" fill="#888">r0b</text>
  <line x1="60" y1="38" x2="70" y2="38" stroke="#aaa" stroke-width="1.5" stroke-linecap="round"/>
  <circle cx="70" cy="38" r="1.5" fill="#c0c0c0"/>
  <text x="57" y="39" text-anchor="end" font-family="monospace" font-size="3" fill="#888">qd</text>
  <line x1="60" y1="33" x2="70" y2="33" stroke="#aaa" stroke-width="1.5" stroke-linecap="round"/>
  <circle cx="70" cy="33" r="1.5" fill="#c0c0c0"/>
  <text x="57" y="34" text-anchor="end" font-family="monospace" font-size="3" fill="#888">qc</text>
  <line x1="60" y1="28" x2="70" y2="28" stroke="#aaa" stroke-width="1.5" stroke-linecap="round"/>
  <circle cx="70" cy="28" r="1.5" fill="#c0c0c0"/>
  <text x="57" y="29" text-anchor="end" font-family="monospace" font-size="3" fill="#888">gnd</text>
  <line x1="60" y1="23" x2="70" y2="23" stroke="#aaa" stroke-width="1.5" stroke-linecap="round"/>
  <circle cx="70" cy="23" r="1.5" fill="#c0c0c0"/>
  <text x="57" y="24" text-anchor="end" font-family="monospace" font-size="3" fill="#888">qb</text>
  <line x1="60" y1="18" x2="70" y2="18" stroke="#aaa" stroke-width="1.5" stroke-linecap="round"/>
  <circle cx="70" cy="18" r="1.5" fill="#c0c0c0"/>
  <text x="57" y="19" text-anchor="end" font-family="monospace" font-size="3" fill="#888">qa</text>
  <line x1="60" y1="13" x2="70" y2="13" stroke="#aaa" stroke-width="1.5" stroke-linecap="round"/>
  <circle cx="70" cy="13" r="1.5" fill="#c0c0c0"/>
  <text x="57" y="14" text-anchor="end" font-family="monospace" font-size="3" fill="#888">nc4</text>
  <line x1="60" y1="8" x2="70" y2="8" stroke="#aaa" stroke-width="1.5" stroke-linecap="round"/>
  <circle cx="70" cy="8" r="1.5" fill="#c0c0c0"/>
  <text x="57" y="9" text-anchor="end" font-family="monospace" font-size="3" fill="#888">ckb</text>
</svg>
