<svg xmlns="http://www.w3.org/2000/svg" viewBox="0 0 80 111" width="80" height="111">
  <!-- EATER6502 — bench-style -->
  <rect x="2" y="2" width="76" height="99" rx="2" fill="#1a1a6b" stroke="#0d0d4d" stroke-width="0.8"/>
  <text x="40" y="51.5" text-anchor="middle" font-family="monospace" font-size="4" fill="#aaa">EATER6502</text>
  <line x1="8" y1="101" x2="8" y2="111" stroke="#aaa" stroke-width="1.2" stroke-linecap="round"/>
  <circle cx="8" cy="111" r="1.5" fill="#c0c0c0"/>
  <line x1="16" y1="101" x2="16" y2="111" stroke="#aaa" stroke-width="1.2" stroke-linecap="round"/>
  <circle cx="16" cy="111" r="1.5" fill="#c0c0c0"/>
  <line x1="24" y1="101" x2="24" y2="111" stroke="#aaa" stroke-width="1.2" stroke-linecap="round"/>
  <circle cx="24" cy="111" r="1.5" fill="#c0c0c0"/>
  <line x1="32" y1="101" x2="32" y2="111" stroke="#aaa" stroke-width="1.2" stroke-linecap="round"/>
  <circle cx="32" cy="111" r="1.5" fill="#c0c0c0"/>
  <line x1="40" y1="101" x2="40" y2="111" stroke="#aaa" stroke-width="1.2" stroke-linecap="round"/>
  <circle cx="40" cy="111" r="1.5" fill="#c0c0c0"/>
  <line x1="48" y1="101" x2="48" y2="111" stroke="#aaa" stroke-width="1.2" stroke-linecap="round"/>
  <circle cx="48" cy="111" r="1.5" fill="#c0c0c0"/>
  <line x1="56" y1="101" x2="56" y2="111" stroke="#aaa" stroke-width="1.2" stroke-linecap="round"/>
  <circle cx="56" cy="111" r="1.5" fill="#c0c0c0"/>
  <line x1="64" y1="101" x2="64" y2="111" stroke="#aaa" stroke-width="1.2" stroke-linecap="round"/>
  <circle cx="64" cy="111" r="1.5" fill="#c0c0c0"/>
  <line x1="72" y1="101" x2="72" y2="111" stroke="#aaa" stroke-width="1.2" stroke-linecap="round"/>
  <circle cx="72" cy="111" r="1.5" fill="#c0c0c0"/>
  <line x1="80" y1="101" x2="80" y2="111" stroke="#aaa" stroke-width="1.2" stroke-linecap="round"/>
  <circle cx="80" cy="111" r="1.5" fill="#c0c0c0"/>
  <line x1="80" y1="101" x2="80" y2="111" stroke="#aaa" stroke-width="1.2" stroke-linecap="round"/>
  <circle cx="80" cy="111" r="1.5" fill="#c0c0c0"/>
  <line x1="80" y1="101" x2="80" y2="111" stroke="#aaa" stroke-width="1.2" stroke-linecap="round"/>
  <circle cx="80" cy="111" r="1.5" fill="#c0c0c0"/>
  <line x1="80" y1="101" x2="80" y2="111" stroke="#aaa" stroke-width="1.2" stroke-linecap="round"/>
  <circle cx="80" cy="111" r="1.5" fill="#c0c0c0"/>
  <line x1="80" y1="101" x2="80" y2="111" stroke="#aaa" stroke-width="1.2" stroke-linecap="round"/>
  <circle cx="80" cy="111" r="1.5" fill="#c0c0c0"/>
  <line x1="80" y1="101" x2="80" y2="111" stroke="#aaa" stroke-width="1.2" stroke-linecap="round"/>
  <circle cx="80" cy="111" r="1.5" fill="#c0c0c0"/>
  <line x1="80" y1="101" x2="80" y2="111" stroke="#aaa" stroke-width="1.2" stroke-linecap="round"/>
  <circle cx="80" cy="111" r="1.5" fill="#c0c0c0"/>
  <line x1="80" y1="101" x2="80" y2="111" stroke="#aaa" stroke-width="1.2" stroke-linecap="round"/>
  <circle cx="80" cy="111" r="1.5" fill="#c0c0c0"/>
  <line x1="80" y1="101" x2="80" y2="111" stroke="#aaa" stroke-width="1.2" stroke-linecap="round"/>
  <circle cx="80" cy="111" r="1.5" fill="#c0c0c0"/>
</svg>
