<svg xmlns="http://www.w3.org/2000/svg" viewBox="0 0 88 26" width="88" height="26">
  <!-- rnet_sip — 10-pin SIP resistor network, bench-style -->
  <rect x="2" y="2" width="84" height="16" rx="2" fill="#e8c84a" stroke="#b09020" stroke-width="1"/>
  <circle cx="8" cy="10" r="1.8" fill="none" stroke="#8a6f14" stroke-width="1"/>
  <text x="44" y="12.5" text-anchor="middle" font-family="monospace" font-size="5" fill="#5a4a10">R-NET</text>
  <line x1="8" y1="18" x2="8" y2="26" stroke="#aaa" stroke-width="1.5" stroke-linecap="round"/>
  <circle cx="8" cy="26" r="1.5" fill="#c0c0c0"/>
  <line x1="16" y1="18" x2="16" y2="26" stroke="#aaa" stroke-width="1.5" stroke-linecap="round"/>
  <circle cx="16" cy="26" r="1.5" fill="#c0c0c0"/>
  <line x1="24" y1="18" x2="24" y2="26" stroke="#aaa" stroke-width="1.5" stroke-linecap="round"/>
  <circle cx="24" cy="26" r="1.5" fill="#c0c0c0"/>
  <line x1="32" y1="18" x2="32" y2="26" stroke="#aaa" stroke-width="1.5" stroke-linecap="round"/>
  <circle cx="32" cy="26" r="1.5" fill="#c0c0c0"/>
  <line x1="40" y1="18" x2="40" y2="26" stroke="#aaa" stroke-width="1.5" stroke-linecap="round"/>
  <circle cx="40" cy="26" r="1.5" fill="#c0c0c0"/>
  <line x1="48" y1="18" x2="48" y2="26" stroke="#aaa" stroke-width="1.5" stroke-linecap="round"/>
  <circle cx="48" cy="26" r="1.5" fill="#c0c0c0"/>
  <line x1="56" y1="18" x2="56" y2="26" stroke="#aaa" stroke-width="1.5" stroke-linecap="round"/>
  <circle cx="56" cy="26" r="1.5" fill="#c0c0c0"/>
  <line x1="64" y1="18" x2="64" y2="26" stroke="#aaa" stroke-width="1.5" stroke-linecap="round"/>
  <circle cx="64" cy="26" r="1.5" fill="#c0c0c0"/>
  <line x1="72" y1="18" x2="72" y2="26" stroke="#aaa" stroke-width="1.5" stroke-linecap="round"/>
  <circle cx="72" cy="26" r="1.5" fill="#c0c0c0"/>
  <line x1="80" y1="18" x2="80" y2="26" stroke="#aaa" stroke-width="1.5" stroke-linecap="round"/>
  <circle cx="80" cy="26" r="1.5" fill="#c0c0c0"/>
</svg>
